<mxfile host="app.diagrams.net" agent="Mozilla/5.0 (Windows NT 10.0; Win64; x64) AppleWebKit/537.36 (KHTML, like Gecko) Chrome/129.0.0.0 Safari/537.36" version="24.7.16">
  <diagram name="Page-1" id="6Wlj-nMjCAUkd7qBCZXu">
    <mxGraphModel dx="1600" dy="851" grid="1" gridSize="10" guides="1" tooltips="1" connect="1" arrows="1" fold="1" page="1" pageScale="1" pageWidth="850" pageHeight="1100" math="0" shadow="0">
      <root>
        <mxCell id="0" />
        <mxCell id="1" parent="0" />
        <mxCell id="JwXCe-brZwVoCp3bY7yw-1" value="Student" style="shape=umlActor;verticalLabelPosition=bottom;verticalAlign=top;html=1;outlineConnect=0;" vertex="1" parent="1">
          <mxGeometry x="170" y="760" width="30" height="60" as="geometry" />
        </mxCell>
        <mxCell id="JwXCe-brZwVoCp3bY7yw-2" value="Lesson Booking System" style="swimlane;whiteSpace=wrap;html=1;" vertex="1" parent="1">
          <mxGeometry x="360" y="80" width="990" height="1250" as="geometry" />
        </mxCell>
        <mxCell id="JwXCe-brZwVoCp3bY7yw-3" value="Create Student Account" style="ellipse;whiteSpace=wrap;html=1;" vertex="1" parent="JwXCe-brZwVoCp3bY7yw-2">
          <mxGeometry x="120" y="400" width="120" height="80" as="geometry" />
        </mxCell>
        <mxCell id="JwXCe-brZwVoCp3bY7yw-29" style="edgeStyle=orthogonalEdgeStyle;rounded=0;orthogonalLoop=1;jettySize=auto;html=1;entryX=0.5;entryY=1;entryDx=0;entryDy=0;dashed=1;" edge="1" parent="JwXCe-brZwVoCp3bY7yw-2" source="JwXCe-brZwVoCp3bY7yw-11" target="JwXCe-brZwVoCp3bY7yw-28">
          <mxGeometry relative="1" as="geometry" />
        </mxCell>
        <mxCell id="JwXCe-brZwVoCp3bY7yw-30" value="&amp;lt;&amp;lt;include&amp;gt;&amp;gt;" style="edgeLabel;html=1;align=center;verticalAlign=middle;resizable=0;points=[];" vertex="1" connectable="0" parent="JwXCe-brZwVoCp3bY7yw-29">
          <mxGeometry x="0.2333" y="1" relative="1" as="geometry">
            <mxPoint as="offset" />
          </mxGeometry>
        </mxCell>
        <mxCell id="JwXCe-brZwVoCp3bY7yw-34" style="edgeStyle=orthogonalEdgeStyle;rounded=0;orthogonalLoop=1;jettySize=auto;html=1;entryX=0.5;entryY=1;entryDx=0;entryDy=0;dashed=1;" edge="1" parent="JwXCe-brZwVoCp3bY7yw-2" source="JwXCe-brZwVoCp3bY7yw-11" target="JwXCe-brZwVoCp3bY7yw-31">
          <mxGeometry relative="1" as="geometry" />
        </mxCell>
        <mxCell id="JwXCe-brZwVoCp3bY7yw-35" value="&amp;lt;&amp;lt;include&amp;gt;&amp;gt;" style="edgeLabel;html=1;align=center;verticalAlign=middle;resizable=0;points=[];" vertex="1" connectable="0" parent="JwXCe-brZwVoCp3bY7yw-34">
          <mxGeometry x="-0.3364" y="1" relative="1" as="geometry">
            <mxPoint y="-1" as="offset" />
          </mxGeometry>
        </mxCell>
        <mxCell id="JwXCe-brZwVoCp3bY7yw-39" style="edgeStyle=orthogonalEdgeStyle;rounded=0;orthogonalLoop=1;jettySize=auto;html=1;entryX=0.5;entryY=0;entryDx=0;entryDy=0;dashed=1;" edge="1" parent="JwXCe-brZwVoCp3bY7yw-2" source="JwXCe-brZwVoCp3bY7yw-11" target="JwXCe-brZwVoCp3bY7yw-36">
          <mxGeometry relative="1" as="geometry" />
        </mxCell>
        <mxCell id="JwXCe-brZwVoCp3bY7yw-41" value="&amp;lt;&amp;lt;include&amp;gt;&amp;gt;" style="edgeStyle=orthogonalEdgeStyle;rounded=0;orthogonalLoop=1;jettySize=auto;html=1;entryX=0.5;entryY=0;entryDx=0;entryDy=0;dashed=1;" edge="1" parent="JwXCe-brZwVoCp3bY7yw-2" source="JwXCe-brZwVoCp3bY7yw-11" target="JwXCe-brZwVoCp3bY7yw-40">
          <mxGeometry relative="1" as="geometry" />
        </mxCell>
        <mxCell id="JwXCe-brZwVoCp3bY7yw-11" value="Create Offering" style="ellipse;whiteSpace=wrap;html=1;" vertex="1" parent="JwXCe-brZwVoCp3bY7yw-2">
          <mxGeometry x="50" y="180" width="120" height="80" as="geometry" />
        </mxCell>
        <mxCell id="JwXCe-brZwVoCp3bY7yw-51" value="&amp;lt;&amp;lt;include&amp;gt;&amp;gt;" style="edgeStyle=orthogonalEdgeStyle;rounded=0;orthogonalLoop=1;jettySize=auto;html=1;entryX=0;entryY=0.5;entryDx=0;entryDy=0;" edge="1" parent="JwXCe-brZwVoCp3bY7yw-2" source="JwXCe-brZwVoCp3bY7yw-17" target="JwXCe-brZwVoCp3bY7yw-22">
          <mxGeometry relative="1" as="geometry" />
        </mxCell>
        <mxCell id="JwXCe-brZwVoCp3bY7yw-78" value="" style="edgeStyle=orthogonalEdgeStyle;rounded=0;orthogonalLoop=1;jettySize=auto;html=1;entryX=1;entryY=0.5;entryDx=0;entryDy=0;dashed=1;" edge="1" parent="JwXCe-brZwVoCp3bY7yw-2" source="JwXCe-brZwVoCp3bY7yw-17" target="JwXCe-brZwVoCp3bY7yw-20">
          <mxGeometry relative="1" as="geometry" />
        </mxCell>
        <mxCell id="JwXCe-brZwVoCp3bY7yw-17" value="Accept Offering" style="ellipse;whiteSpace=wrap;html=1;" vertex="1" parent="JwXCe-brZwVoCp3bY7yw-2">
          <mxGeometry x="370" y="850" width="120" height="80" as="geometry" />
        </mxCell>
        <mxCell id="JwXCe-brZwVoCp3bY7yw-52" value="&amp;lt;&amp;lt;include&amp;gt;&amp;gt;" style="edgeStyle=orthogonalEdgeStyle;rounded=0;orthogonalLoop=1;jettySize=auto;html=1;entryX=0.5;entryY=0;entryDx=0;entryDy=0;dashed=1;" edge="1" parent="JwXCe-brZwVoCp3bY7yw-2" source="JwXCe-brZwVoCp3bY7yw-20" target="JwXCe-brZwVoCp3bY7yw-22">
          <mxGeometry relative="1" as="geometry" />
        </mxCell>
        <mxCell id="JwXCe-brZwVoCp3bY7yw-58" value="&amp;lt;&amp;lt;include&amp;gt;&amp;gt;" style="edgeStyle=orthogonalEdgeStyle;rounded=0;orthogonalLoop=1;jettySize=auto;html=1;entryX=0.5;entryY=0;entryDx=0;entryDy=0;dashed=1;" edge="1" parent="JwXCe-brZwVoCp3bY7yw-2" source="JwXCe-brZwVoCp3bY7yw-20" target="JwXCe-brZwVoCp3bY7yw-57">
          <mxGeometry relative="1" as="geometry" />
        </mxCell>
        <mxCell id="JwXCe-brZwVoCp3bY7yw-64" value="&amp;lt;&amp;lt;include&amp;gt;&amp;gt;" style="edgeStyle=orthogonalEdgeStyle;rounded=0;orthogonalLoop=1;jettySize=auto;html=1;entryX=0.5;entryY=0;entryDx=0;entryDy=0;dashed=1;" edge="1" parent="JwXCe-brZwVoCp3bY7yw-2" source="JwXCe-brZwVoCp3bY7yw-20" target="JwXCe-brZwVoCp3bY7yw-63">
          <mxGeometry relative="1" as="geometry" />
        </mxCell>
        <mxCell id="JwXCe-brZwVoCp3bY7yw-82" value="&amp;lt;&amp;lt;include&amp;gt;&amp;gt;" style="edgeStyle=orthogonalEdgeStyle;rounded=0;orthogonalLoop=1;jettySize=auto;html=1;entryX=0;entryY=0.5;entryDx=0;entryDy=0;dashed=1;" edge="1" parent="JwXCe-brZwVoCp3bY7yw-2" source="JwXCe-brZwVoCp3bY7yw-20" target="JwXCe-brZwVoCp3bY7yw-79">
          <mxGeometry relative="1" as="geometry" />
        </mxCell>
        <mxCell id="JwXCe-brZwVoCp3bY7yw-20" value="Create Booking" style="ellipse;whiteSpace=wrap;html=1;" vertex="1" parent="JwXCe-brZwVoCp3bY7yw-2">
          <mxGeometry x="120" y="540" width="120" height="80" as="geometry" />
        </mxCell>
        <mxCell id="JwXCe-brZwVoCp3bY7yw-22" value="Validate Details" style="ellipse;whiteSpace=wrap;html=1;" vertex="1" parent="JwXCe-brZwVoCp3bY7yw-2">
          <mxGeometry x="700" y="850" width="120" height="80" as="geometry" />
        </mxCell>
        <mxCell id="JwXCe-brZwVoCp3bY7yw-46" value="&amp;lt;&amp;lt;include&amp;gt;&amp;gt;" style="edgeStyle=orthogonalEdgeStyle;rounded=0;orthogonalLoop=1;jettySize=auto;html=1;entryX=0.5;entryY=1;entryDx=0;entryDy=0;" edge="1" parent="JwXCe-brZwVoCp3bY7yw-2" source="JwXCe-brZwVoCp3bY7yw-26" target="JwXCe-brZwVoCp3bY7yw-44">
          <mxGeometry relative="1" as="geometry" />
        </mxCell>
        <mxCell id="JwXCe-brZwVoCp3bY7yw-47" value="&amp;lt;&amp;lt;include&amp;gt;&amp;gt;" style="edgeStyle=orthogonalEdgeStyle;rounded=0;orthogonalLoop=1;jettySize=auto;html=1;entryX=0.5;entryY=0;entryDx=0;entryDy=0;dashed=1;" edge="1" parent="JwXCe-brZwVoCp3bY7yw-2" source="JwXCe-brZwVoCp3bY7yw-26" target="JwXCe-brZwVoCp3bY7yw-45">
          <mxGeometry relative="1" as="geometry" />
        </mxCell>
        <mxCell id="JwXCe-brZwVoCp3bY7yw-48" value="" style="edgeStyle=orthogonalEdgeStyle;rounded=0;orthogonalLoop=1;jettySize=auto;html=1;dashed=1;" edge="1" parent="JwXCe-brZwVoCp3bY7yw-2" source="JwXCe-brZwVoCp3bY7yw-26" target="JwXCe-brZwVoCp3bY7yw-44">
          <mxGeometry relative="1" as="geometry" />
        </mxCell>
        <mxCell id="JwXCe-brZwVoCp3bY7yw-26" value="Create Instructor Account" style="ellipse;whiteSpace=wrap;html=1;" vertex="1" parent="JwXCe-brZwVoCp3bY7yw-2">
          <mxGeometry x="100" y="930" width="120" height="80" as="geometry" />
        </mxCell>
        <mxCell id="JwXCe-brZwVoCp3bY7yw-28" value="Set Location" style="ellipse;whiteSpace=wrap;html=1;" vertex="1" parent="JwXCe-brZwVoCp3bY7yw-2">
          <mxGeometry x="320" y="60" width="120" height="80" as="geometry" />
        </mxCell>
        <mxCell id="JwXCe-brZwVoCp3bY7yw-31" value="Set Schedule" style="ellipse;whiteSpace=wrap;html=1;" vertex="1" parent="JwXCe-brZwVoCp3bY7yw-2">
          <mxGeometry x="180" y="60" width="120" height="80" as="geometry" />
        </mxCell>
        <mxCell id="JwXCe-brZwVoCp3bY7yw-36" value="Set Interval of Time (months)" style="ellipse;whiteSpace=wrap;html=1;" vertex="1" parent="JwXCe-brZwVoCp3bY7yw-2">
          <mxGeometry x="180" y="270" width="120" height="80" as="geometry" />
        </mxCell>
        <mxCell id="JwXCe-brZwVoCp3bY7yw-40" value="Set Group or Public" style="ellipse;whiteSpace=wrap;html=1;" vertex="1" parent="JwXCe-brZwVoCp3bY7yw-2">
          <mxGeometry x="320" y="270" width="120" height="80" as="geometry" />
        </mxCell>
        <mxCell id="JwXCe-brZwVoCp3bY7yw-44" value="Specify Specialization" style="ellipse;whiteSpace=wrap;html=1;" vertex="1" parent="JwXCe-brZwVoCp3bY7yw-2">
          <mxGeometry x="100" y="810" width="120" height="80" as="geometry" />
        </mxCell>
        <mxCell id="JwXCe-brZwVoCp3bY7yw-45" value="Specify Available Locations" style="ellipse;whiteSpace=wrap;html=1;" vertex="1" parent="JwXCe-brZwVoCp3bY7yw-2">
          <mxGeometry x="100" y="1040" width="120" height="80" as="geometry" />
        </mxCell>
        <mxCell id="JwXCe-brZwVoCp3bY7yw-55" value="Set Booking Availability" style="ellipse;whiteSpace=wrap;html=1;" vertex="1" parent="JwXCe-brZwVoCp3bY7yw-2">
          <mxGeometry x="600" y="580" width="120" height="80" as="geometry" />
        </mxCell>
        <mxCell id="JwXCe-brZwVoCp3bY7yw-57" value="View Booking Information" style="ellipse;whiteSpace=wrap;html=1;" vertex="1" parent="JwXCe-brZwVoCp3bY7yw-2">
          <mxGeometry x="180" y="640" width="120" height="80" as="geometry" />
        </mxCell>
        <mxCell id="JwXCe-brZwVoCp3bY7yw-63" value="Cancel Booking" style="ellipse;whiteSpace=wrap;html=1;" vertex="1" parent="JwXCe-brZwVoCp3bY7yw-2">
          <mxGeometry x="50" y="640" width="120" height="80" as="geometry" />
        </mxCell>
        <mxCell id="JwXCe-brZwVoCp3bY7yw-67" value="Delete Account" style="ellipse;whiteSpace=wrap;html=1;" vertex="1" parent="JwXCe-brZwVoCp3bY7yw-2">
          <mxGeometry x="20" y="330" width="120" height="80" as="geometry" />
        </mxCell>
        <mxCell id="JwXCe-brZwVoCp3bY7yw-77" value="&amp;lt;&amp;lt;includes&amp;gt;&amp;gt;" style="edgeStyle=orthogonalEdgeStyle;rounded=0;orthogonalLoop=1;jettySize=auto;html=1;entryX=1;entryY=0.5;entryDx=0;entryDy=0;dashed=1;" edge="1" parent="JwXCe-brZwVoCp3bY7yw-2" source="JwXCe-brZwVoCp3bY7yw-72" target="JwXCe-brZwVoCp3bY7yw-20">
          <mxGeometry relative="1" as="geometry" />
        </mxCell>
        <mxCell id="JwXCe-brZwVoCp3bY7yw-72" value="View Offerings" style="ellipse;whiteSpace=wrap;html=1;" vertex="1" parent="JwXCe-brZwVoCp3bY7yw-2">
          <mxGeometry x="435" y="690" width="120" height="80" as="geometry" />
        </mxCell>
        <mxCell id="JwXCe-brZwVoCp3bY7yw-79" value="Create Child Booking" style="ellipse;whiteSpace=wrap;html=1;" vertex="1" parent="JwXCe-brZwVoCp3bY7yw-2">
          <mxGeometry x="320" y="430" width="120" height="80" as="geometry" />
        </mxCell>
        <mxCell id="JwXCe-brZwVoCp3bY7yw-4" value="" style="endArrow=none;html=1;rounded=0;entryX=0;entryY=0.5;entryDx=0;entryDy=0;exitX=0.5;exitY=0.5;exitDx=0;exitDy=0;exitPerimeter=0;" edge="1" parent="1" source="JwXCe-brZwVoCp3bY7yw-1" target="JwXCe-brZwVoCp3bY7yw-3">
          <mxGeometry width="50" height="50" relative="1" as="geometry">
            <mxPoint x="510" y="410" as="sourcePoint" />
            <mxPoint x="560" y="360" as="targetPoint" />
          </mxGeometry>
        </mxCell>
        <mxCell id="JwXCe-brZwVoCp3bY7yw-9" value="Instructor" style="shape=umlActor;verticalLabelPosition=bottom;verticalAlign=top;html=1;outlineConnect=0;" vertex="1" parent="1">
          <mxGeometry x="160" y="1230" width="30" height="60" as="geometry" />
        </mxCell>
        <mxCell id="JwXCe-brZwVoCp3bY7yw-56" style="edgeStyle=orthogonalEdgeStyle;rounded=0;orthogonalLoop=1;jettySize=auto;html=1;entryX=1;entryY=0.5;entryDx=0;entryDy=0;" edge="1" parent="1" source="JwXCe-brZwVoCp3bY7yw-13" target="JwXCe-brZwVoCp3bY7yw-55">
          <mxGeometry relative="1" as="geometry" />
        </mxCell>
        <mxCell id="JwXCe-brZwVoCp3bY7yw-13" value="&amp;lt;&amp;lt;System&amp;gt;&amp;gt;" style="rounded=0;whiteSpace=wrap;html=1;" vertex="1" parent="1">
          <mxGeometry x="1360" y="840" width="120" height="60" as="geometry" />
        </mxCell>
        <mxCell id="JwXCe-brZwVoCp3bY7yw-19" value="" style="endArrow=none;html=1;rounded=0;entryX=0;entryY=0.5;entryDx=0;entryDy=0;exitX=0.5;exitY=0.5;exitDx=0;exitDy=0;exitPerimeter=0;" edge="1" parent="1" source="JwXCe-brZwVoCp3bY7yw-9" target="JwXCe-brZwVoCp3bY7yw-17">
          <mxGeometry width="50" height="50" relative="1" as="geometry">
            <mxPoint x="700" y="430" as="sourcePoint" />
            <mxPoint x="750" y="380" as="targetPoint" />
          </mxGeometry>
        </mxCell>
        <mxCell id="JwXCe-brZwVoCp3bY7yw-21" value="" style="endArrow=none;html=1;rounded=0;entryX=0;entryY=0.5;entryDx=0;entryDy=0;exitX=0.5;exitY=0.5;exitDx=0;exitDy=0;exitPerimeter=0;" edge="1" parent="1" source="JwXCe-brZwVoCp3bY7yw-1" target="JwXCe-brZwVoCp3bY7yw-20">
          <mxGeometry width="50" height="50" relative="1" as="geometry">
            <mxPoint x="700" y="430" as="sourcePoint" />
            <mxPoint x="750" y="380" as="targetPoint" />
          </mxGeometry>
        </mxCell>
        <mxCell id="JwXCe-brZwVoCp3bY7yw-24" value="" style="endArrow=none;html=1;rounded=0;entryX=1;entryY=0.5;entryDx=0;entryDy=0;exitX=0;exitY=0.5;exitDx=0;exitDy=0;" edge="1" parent="1" source="JwXCe-brZwVoCp3bY7yw-13" target="JwXCe-brZwVoCp3bY7yw-22">
          <mxGeometry width="50" height="50" relative="1" as="geometry">
            <mxPoint x="700" y="430" as="sourcePoint" />
            <mxPoint x="750" y="380" as="targetPoint" />
          </mxGeometry>
        </mxCell>
        <mxCell id="JwXCe-brZwVoCp3bY7yw-27" value="" style="endArrow=none;html=1;rounded=0;exitX=0.5;exitY=0.5;exitDx=0;exitDy=0;exitPerimeter=0;entryX=0;entryY=0.5;entryDx=0;entryDy=0;" edge="1" parent="1" source="JwXCe-brZwVoCp3bY7yw-9" target="JwXCe-brZwVoCp3bY7yw-26">
          <mxGeometry width="50" height="50" relative="1" as="geometry">
            <mxPoint x="700" y="520" as="sourcePoint" />
            <mxPoint x="750" y="470" as="targetPoint" />
          </mxGeometry>
        </mxCell>
        <mxCell id="JwXCe-brZwVoCp3bY7yw-60" value="Administrator" style="shape=umlActor;verticalLabelPosition=bottom;verticalAlign=top;html=1;outlineConnect=0;" vertex="1" parent="1">
          <mxGeometry x="170" y="580" width="30" height="60" as="geometry" />
        </mxCell>
        <mxCell id="JwXCe-brZwVoCp3bY7yw-62" value="" style="endArrow=none;html=1;rounded=0;entryX=0;entryY=0.3333333333333333;entryDx=0;entryDy=0;entryPerimeter=0;exitX=0;exitY=0.5;exitDx=0;exitDy=0;" edge="1" parent="1" source="JwXCe-brZwVoCp3bY7yw-57" target="JwXCe-brZwVoCp3bY7yw-60">
          <mxGeometry width="50" height="50" relative="1" as="geometry">
            <mxPoint x="850" y="540" as="sourcePoint" />
            <mxPoint x="900" y="490" as="targetPoint" />
          </mxGeometry>
        </mxCell>
        <mxCell id="JwXCe-brZwVoCp3bY7yw-65" value="" style="endArrow=none;html=1;rounded=0;exitX=0.5;exitY=0.5;exitDx=0;exitDy=0;exitPerimeter=0;entryX=0;entryY=0.5;entryDx=0;entryDy=0;" edge="1" parent="1" source="JwXCe-brZwVoCp3bY7yw-60" target="JwXCe-brZwVoCp3bY7yw-63">
          <mxGeometry width="50" height="50" relative="1" as="geometry">
            <mxPoint x="740" y="500" as="sourcePoint" />
            <mxPoint x="790" y="450" as="targetPoint" />
          </mxGeometry>
        </mxCell>
        <mxCell id="JwXCe-brZwVoCp3bY7yw-66" value="" style="endArrow=none;html=1;rounded=0;exitX=0.5;exitY=0.5;exitDx=0;exitDy=0;exitPerimeter=0;entryX=0;entryY=0.5;entryDx=0;entryDy=0;" edge="1" parent="1" source="JwXCe-brZwVoCp3bY7yw-60" target="JwXCe-brZwVoCp3bY7yw-11">
          <mxGeometry width="50" height="50" relative="1" as="geometry">
            <mxPoint x="810" y="390" as="sourcePoint" />
            <mxPoint x="1150" y="360" as="targetPoint" />
          </mxGeometry>
        </mxCell>
        <mxCell id="JwXCe-brZwVoCp3bY7yw-68" value="" style="endArrow=none;html=1;rounded=0;exitX=0.5;exitY=0.5;exitDx=0;exitDy=0;exitPerimeter=0;entryX=0;entryY=0.5;entryDx=0;entryDy=0;" edge="1" parent="1" source="JwXCe-brZwVoCp3bY7yw-60" target="JwXCe-brZwVoCp3bY7yw-67">
          <mxGeometry width="50" height="50" relative="1" as="geometry">
            <mxPoint x="810" y="480" as="sourcePoint" />
            <mxPoint x="860" y="430" as="targetPoint" />
          </mxGeometry>
        </mxCell>
        <mxCell id="JwXCe-brZwVoCp3bY7yw-73" value="" style="endArrow=none;html=1;rounded=0;exitX=0.5;exitY=0.5;exitDx=0;exitDy=0;exitPerimeter=0;entryX=0;entryY=0.5;entryDx=0;entryDy=0;" edge="1" parent="1" source="JwXCe-brZwVoCp3bY7yw-9" target="JwXCe-brZwVoCp3bY7yw-72">
          <mxGeometry width="50" height="50" relative="1" as="geometry">
            <mxPoint x="710" y="860" as="sourcePoint" />
            <mxPoint x="760" y="810" as="targetPoint" />
          </mxGeometry>
        </mxCell>
        <mxCell id="JwXCe-brZwVoCp3bY7yw-74" value="" style="endArrow=none;html=1;rounded=0;exitX=0.5;exitY=0.5;exitDx=0;exitDy=0;exitPerimeter=0;entryX=0;entryY=0.5;entryDx=0;entryDy=0;" edge="1" parent="1" source="JwXCe-brZwVoCp3bY7yw-1" target="JwXCe-brZwVoCp3bY7yw-72">
          <mxGeometry width="50" height="50" relative="1" as="geometry">
            <mxPoint x="700" y="800" as="sourcePoint" />
            <mxPoint x="750" y="750" as="targetPoint" />
          </mxGeometry>
        </mxCell>
      </root>
    </mxGraphModel>
  </diagram>
</mxfile>
